<?xml version="1.0" encoding="UTF-8" standalone="no"?>
<!DOCTYPE svg PUBLIC "-//W3C//DTD SVG 1.1//EN" "http://www.w3.org/Graphics/SVG/1.1/DTD/svg11.dtd">
<svg width="100%" height="100%" viewBox="0 0 1080 1080" version="1.1" xmlns="http://www.w3.org/2000/svg" xmlns:xlink="http://www.w3.org/1999/xlink" xml:space="preserve" xmlns:serif="http://www.serif.com/" style="fill-rule:evenodd;clip-rule:evenodd;stroke-linecap:round;stroke-linejoin:round;stroke-miterlimit:1.5;">
    <g transform="matrix(1.65593,0,0,1.59767,-334.029,-134.658)">
        <path d="M792.376,398.01L792.376,544.601C792.376,585.053 760.689,617.896 721.66,617.896L454.102,617.896C415.073,617.896 383.386,585.053 383.386,544.601L383.386,398.01C383.386,357.558 415.073,324.715 454.102,324.715L721.66,324.715C760.689,324.715 792.376,357.558 792.376,398.01Z" style="fill:white;stroke:black;stroke-width:6.53px;"/>
    </g>
    <g transform="matrix(0.606455,0.205041,-0.216682,0.716068,327.523,57.1398)">
        <path d="M374.439,158.646L374.439,535.456C374.439,561.649 349.601,582.914 319.008,582.914L208.145,582.914C177.551,582.914 152.713,561.649 152.713,535.456L152.713,158.646C152.713,132.453 177.551,111.189 208.145,111.189L319.008,111.189C349.601,111.189 374.439,132.453 374.439,158.646Z" style="fill:white;stroke:black;stroke-width:15.03px;"/>
    </g>
    <g transform="matrix(-0.606455,0.205041,0.216682,0.716068,945.655,41.7525)">
        <path d="M374.439,158.646L374.439,535.456C374.439,561.649 349.601,582.914 319.008,582.914L208.145,582.914C177.551,582.914 152.713,561.649 152.713,535.456L152.713,158.646C152.713,132.453 177.551,111.189 208.145,111.189L319.008,111.189C349.601,111.189 374.439,132.453 374.439,158.646Z" style="fill:white;stroke:black;stroke-width:15.03px;"/>
    </g>
    <g transform="matrix(0.780346,0,0,0.824848,221.229,52.4351)">
        <g transform="matrix(1.01818,0,0,1.01268,6.62948,-12.3234)">
            <path d="M944.901,549.175L944.901,830.723C944.901,908.418 878.585,971.496 796.902,971.496L241.71,971.496C160.027,971.496 93.711,908.418 93.711,830.723L93.711,549.175C93.711,471.48 160.027,408.402 241.71,408.402L796.902,408.402C878.585,408.402 944.901,471.48 944.901,549.175Z" style="fill:white;stroke:white;stroke-opacity:0;stroke-width:1.23px;"/>
        </g>
        <g transform="matrix(0.777162,0.24858,-0.277674,0.868121,136.215,5.70368)">
            <path d="M374.439,158.646L374.439,535.456C374.439,561.649 349.601,582.914 319.008,582.914L208.145,582.914C177.551,582.914 152.713,561.649 152.713,535.456L152.713,158.646C152.713,132.453 177.551,111.189 208.145,111.189L319.008,111.189C349.601,111.189 374.439,132.453 374.439,158.646Z" style="fill:white;"/>
        </g>
        <g transform="matrix(-0.777162,0.24858,0.277674,0.868121,928.339,-12.951)">
            <path d="M374.439,158.646L374.439,535.456C374.439,561.649 349.601,582.914 319.008,582.914L208.145,582.914C177.551,582.914 152.713,561.649 152.713,535.456L152.713,158.646C152.713,132.453 177.551,111.189 208.145,111.189L319.008,111.189C349.601,111.189 374.439,132.453 374.439,158.646Z" style="fill:white;"/>
        </g>
        <g transform="matrix(1,0,0,1,9.562,-0.761902)">
            <g transform="matrix(-0.980098,0.198514,-0.198514,-0.980098,1155.53,1559.76)">
                <path d="M472.636,852.372L472.636,864.258C472.636,867.538 469.834,870.201 466.383,870.201L364.908,870.201C361.457,870.201 358.656,867.538 358.656,864.258L358.656,852.372C358.656,849.093 361.457,846.43 364.908,846.43L466.383,846.43C469.834,846.43 472.636,849.093 472.636,852.372Z"/>
            </g>
            <g transform="matrix(-0.97741,-0.21135,-0.21135,0.97741,1007.68,51.3346)">
                <path d="M472.636,852.372L472.636,864.258C472.636,867.538 469.836,870.201 466.387,870.201L364.905,870.201C361.456,870.201 358.656,867.538 358.656,864.258L358.656,852.372C358.656,849.093 361.456,846.43 364.905,846.43L466.387,846.43C469.836,846.43 472.636,849.093 472.636,852.372Z"/>
            </g>
            <g transform="matrix(1,0,0,1,6.63618,-15.8323)">
                <path d="M484.521,671.519C484.521,671.519 404.551,669.081 406.502,711.991C408.452,754.902 486.397,776.369 486.397,776.369C486.397,776.369 573.747,757.968 575.218,710.529C576.534,668.079 484.521,671.519 484.521,671.519Z" style="stroke:black;stroke-width:1.25px;"/>
            </g>
        </g>
        <g transform="matrix(1.12403,0,0,1.12403,-63.9742,-80.2589)">
            <circle cx="293.116" cy="647.092" r="82.738"/>
        </g>
        <g transform="matrix(0.707107,-0.707107,0.707107,0.707107,-199.77,681.461)">
            <path d="M727.596,551.621L727.596,722.534C727.596,733.063 719.061,741.611 708.549,741.611L670.453,741.611C659.941,741.611 651.406,733.063 651.406,722.534L651.406,551.621C651.406,541.092 659.941,532.544 670.453,532.544L708.549,532.544C719.061,532.544 727.596,541.092 727.596,551.621Z"/>
        </g>
        <g transform="matrix(-0.707107,-0.707107,-0.707107,0.707107,1676.3,681.461)">
            <path d="M727.596,551.621L727.596,722.534C727.596,733.063 719.061,741.611 708.549,741.611L670.453,741.611C659.941,741.611 651.406,733.063 651.406,722.534L651.406,551.621C651.406,541.092 659.941,532.544 670.453,532.544L708.549,532.544C719.061,532.544 727.596,541.092 727.596,551.621Z"/>
        </g>
        <g transform="matrix(0.461347,0.461347,-0.589648,0.589648,614.435,196.801)">
            <path d="M225.171,794.393L225.171,851.692C225.171,853.751 223.037,855.423 220.409,855.423L210.885,855.423C208.257,855.423 206.124,853.751 206.124,851.692L206.124,794.393C206.124,792.334 208.257,790.661 210.885,790.661L220.409,790.661C223.037,790.661 225.171,792.334 225.171,794.393Z" style="fill:rgb(128,0,255);"/>
        </g>
        <g transform="matrix(0.461347,0.461347,-0.589648,0.589648,646.423,199.922)">
            <path d="M225.171,794.393L225.171,851.692C225.171,853.751 223.037,855.423 220.409,855.423L210.885,855.423C208.257,855.423 206.124,853.751 206.124,851.692L206.124,794.393C206.124,792.334 208.257,790.661 210.885,790.661L220.409,790.661C223.037,790.661 225.171,792.334 225.171,794.393Z" style="fill:rgb(128,0,255);"/>
        </g>
        <g transform="matrix(0.461347,0.461347,-0.589648,0.589648,681.921,200.312)">
            <path d="M225.171,794.393L225.171,851.692C225.171,853.751 223.037,855.423 220.409,855.423L210.885,855.423C208.257,855.423 206.124,853.751 206.124,851.692L206.124,794.393C206.124,792.334 208.257,790.661 210.885,790.661L220.409,790.661C223.037,790.661 225.171,792.334 225.171,794.393Z" style="fill:rgb(128,0,255);"/>
        </g>
        <g transform="matrix(0.461347,-0.461347,-0.589648,-0.589648,1097.29,1369.9)">
            <path d="M225.171,794.393L225.171,851.692C225.171,853.751 223.037,855.423 220.409,855.423L210.885,855.423C208.257,855.423 206.124,853.751 206.124,851.692L206.124,794.393C206.124,792.334 208.257,790.661 210.885,790.661L220.409,790.661C223.037,790.661 225.171,792.334 225.171,794.393Z" style="fill:rgb(128,0,255);"/>
        </g>
        <g transform="matrix(0.461347,-0.461347,-0.589648,-0.589648,1129.28,1366.78)">
            <path d="M225.171,794.393L225.171,851.692C225.171,853.751 223.037,855.423 220.409,855.423L210.885,855.423C208.257,855.423 206.124,853.751 206.124,851.692L206.124,794.393C206.124,792.334 208.257,790.661 210.885,790.661L220.409,790.661C223.037,790.661 225.171,792.334 225.171,794.393Z" style="fill:rgb(128,0,255);"/>
        </g>
        <g transform="matrix(0.461347,-0.461347,-0.589648,-0.589648,1164.78,1366.39)">
            <path d="M225.171,794.393L225.171,851.692C225.171,853.751 223.037,855.423 220.409,855.423L210.885,855.423C208.257,855.423 206.124,853.751 206.124,851.692L206.124,794.393C206.124,792.334 208.257,790.661 210.885,790.661L220.409,790.661C223.037,790.661 225.171,792.334 225.171,794.393Z" style="fill:rgb(128,0,255);"/>
        </g>
    </g>
    <g transform="matrix(1.47169,0,0,1.55562,-188.045,-108.679)">
        <path d="M328.415,484.339C328.415,484.339 308.754,479.658 292.838,486.523C276.922,493.389 228.863,512.113 221.685,554.556C214.507,596.998 199.527,606.985 231.671,631.951C263.815,656.917 335.28,665.967 353.069,614.474C370.857,562.982 378.035,552.683 356.19,519.603C334.344,486.523 328.415,484.339 328.415,484.339Z" style="fill:white;stroke:black;stroke-width:2.64px;"/>
    </g>
    <g transform="matrix(0.724014,-0.838384,1.15953,1.11882,-572.776,253.854)">
        <path d="M225.483,444.405L225.483,547.326C225.483,559.185 211.5,568.813 194.276,568.813C177.052,568.813 163.068,559.185 163.068,547.326L163.068,444.405C163.068,432.546 177.052,422.917 194.276,422.917C211.5,422.917 225.483,432.546 225.483,444.405Z" style="fill:white;stroke:black;stroke-width:2.97px;"/>
    </g>
    <g transform="matrix(1.06215,-0.167525,0.227637,1.61259,-91.1276,-160.437)">
        <path d="M225.483,443.525L225.483,548.205C225.483,559.579 211.5,568.813 194.276,568.813C177.052,568.813 163.068,559.579 163.068,548.205L163.068,443.525C163.068,432.151 177.052,422.917 194.276,422.917C211.5,422.917 225.483,432.151 225.483,443.525Z" style="fill:white;stroke:black;stroke-width:2.92px;"/>
    </g>
    <g transform="matrix(1.08603,-0.673979,0.745113,1.34151,-463.867,180.186)">
        <path d="M351.874,518.686L351.874,538.581C351.874,544.071 346.529,548.528 339.946,548.528L248.335,548.528C241.751,548.528 236.406,544.071 236.406,538.581L236.406,518.686C236.406,513.196 241.751,508.738 248.335,508.738L339.946,508.738C346.529,508.738 351.874,513.196 351.874,518.686Z" style="fill:white;stroke:black;stroke-width:2.9px;"/>
    </g>
    <g transform="matrix(1.03494,0.673576,-0.741784,1.27345,263.515,-110.687)">
        <path d="M351.874,518.686L351.874,538.581C351.874,544.071 346.561,548.528 340.017,548.528L248.264,548.528C241.719,548.528 236.406,544.071 236.406,538.581L236.406,518.686C236.406,513.196 241.719,508.738 248.264,508.738L340.017,508.738C346.561,508.738 351.874,513.196 351.874,518.686Z" style="fill:white;stroke:black;stroke-width:2.87px;"/>
    </g>
    <g transform="matrix(1.00592,0.488406,-0.483178,1.1119,125.239,87.437)">
        <path d="M351.874,518.686L351.874,538.581C351.874,544.071 347.046,548.528 341.099,548.528L247.181,548.528C241.234,548.528 236.406,544.071 236.406,538.581L236.406,518.686C236.406,513.196 241.234,508.738 247.181,508.738L341.099,508.738C347.046,508.738 351.874,513.196 351.874,518.686Z" style="fill:white;stroke:black;stroke-width:3.36px;"/>
    </g>
</svg>
